<?xml version="1.0" encoding="UTF-8" standalone="no"?>
<!-- Created with Inkscape (http://www.inkscape.org/) -->

<svg
   xmlns:dc="http://purl.org/dc/elements/1.1/"
   xmlns:cc="http://creativecommons.org/ns#"
   xmlns:rdf="http://www.w3.org/1999/02/22-rdf-syntax-ns#"
   xmlns:svg="http://www.w3.org/2000/svg"
   xmlns="http://www.w3.org/2000/svg"
   xmlns:sodipodi="http://sodipodi.sourceforge.net/DTD/sodipodi-0.dtd"
   xmlns:inkscape="http://www.inkscape.org/namespaces/inkscape"
   width="95.364723mm"
   height="31.956188mm"
   viewBox="0 0 95.364723 31.956188"
   version="1.1"
   id="svg1312"
   inkscape:version="0.92.5 (2060ec1f9f, 2020-04-08)"
   sodipodi:docname="gn45-a-nameplate-trace.svg">
  <defs
     id="defs1306" />
  <sodipodi:namedview
     id="base"
     pagecolor="#ffffff"
     bordercolor="#666666"
     borderopacity="1.0"
     inkscape:pageopacity="0.0"
     inkscape:pageshadow="2"
     inkscape:zoom="3.959798"
     inkscape:cx="143.08224"
     inkscape:cy="30.687613"
     inkscape:document-units="mm"
     inkscape:current-layer="layer1"
     showgrid="false"
     inkscape:window-width="3762"
     inkscape:window-height="2131"
     inkscape:window-x="-9"
     inkscape:window-y="-9"
     inkscape:window-maximized="1"
     fit-margin-top="0"
     fit-margin-left="0"
     fit-margin-right="0"
     fit-margin-bottom="0" />
  <metadata
     id="metadata1309">
    <rdf:RDF>
      <cc:Work
         rdf:about="">
        <dc:format>image/svg+xml</dc:format>
        <dc:type
           rdf:resource="http://purl.org/dc/dcmitype/StillImage" />
        <dc:title></dc:title>
      </cc:Work>
    </rdf:RDF>
  </metadata>
  <g
     inkscape:label="Layer 1"
     inkscape:groupmode="layer"
     id="layer1"
     transform="translate(-21.10931,-42.896906)">
    <path
       id="rect1294"
       style="opacity:1;fill:#000000;fill-opacity:1;stroke:none;stroke-width:1;stroke-linecap:round;stroke-linejoin:bevel;stroke-miterlimit:4;stroke-dasharray:none;stroke-dashoffset:0;stroke-opacity:1;paint-order:normal"
       d="m 69.191444,55.271137 h 20.387091 v 4.854632 H 69.191444 Z M 21.10931,42.896906 v 31.956189 h 95.36472 V 42.896906 Z m 6.30297,2.550234 h 41.50599 41.50651 c -0.0443,0.218218 -0.0669,0.440312 -0.0672,0.663009 -1.4e-4,1.854565 1.50333,3.358073 3.35793,3.357933 0.19175,-1.99e-4 0.38314,-0.01681 0.57206,-0.04961 v 18.936311 c -0.28245,-0.07704 -0.57381,-0.116337 -0.86662,-0.118337 -1.85457,-1.3e-4 -3.35807,1.503362 -3.35793,3.357933 3.9e-4,0.197908 0.0184,0.395396 0.0537,0.590145 H 68.91827 27.71976 c 0.0353,-0.194749 0.0533,-0.392237 0.0537,-0.590145 1.4e-4,-1.854571 -1.50334,-3.358063 -3.35793,-3.357933 -0.2928,0.0015 -0.58414,0.04124 -0.86662,0.118337 V 49.418472 c 0.18892,0.0328 0.38031,0.04944 0.57206,0.04961 1.85459,1.4e-4 3.35807,-1.503368 3.35793,-3.357933 -1.8e-4,-0.222673 -0.0225,-0.44477 -0.0667,-0.663009 z m -3.16105,0.31936 a 0.5,0.5 0 0 1 0.49972,0.499711 0.5,0.5 0 0 1 -0.49972,0.500226 0.5,0.5 0 0 1 -0.50022,-0.500226 0.5,0.5 0 0 1 0.50022,-0.499711 z m 89.02403,0 a 0.5,0.5 0 0 1 0.49971,0.499711 0.5,0.5 0 0 1 -0.49971,0.500226 0.5,0.5 0 0 1 -0.50023,-0.500226 0.5,0.5 0 0 1 0.50023,-0.499711 z M 24.25123,71.265719 a 0.5,0.5 0 0 1 0.49972,0.49971 0.5,0.5 0 0 1 -0.49972,0.500227 0.5,0.5 0 0 1 -0.50022,-0.500227 0.5,0.5 0 0 1 0.50022,-0.49971 z m 89.02403,0 a 0.5,0.5 0 0 1 0.49971,0.49971 0.5,0.5 0 0 1 -0.49971,0.500227 0.5,0.5 0 0 1 -0.50023,-0.500227 0.5,0.5 0 0 1 0.50023,-0.49971 z M 67.09166,58.132121 v 0.353516 h 0.33594 v -0.353516 z m -1.7817,-1.277713 c -0.19843,0 -0.36411,0.164214 -0.36411,0.362639 v 0.0707 0.822348 0.07033 c 0,0.198426 0.16568,0.364106 0.36411,0.364106 h 0.0707 0.44689 0.0707 c 0.19842,0 0.36264,-0.16568 0.36264,-0.364106 v -0.07033 -0.822348 -0.0707 c 0,-0.198425 -0.16422,-0.362639 -0.36264,-0.362639 h -0.0707 -0.44689 z m 0.0707,0.354214 h 0.44689 c 0.0472,0 0.0791,0.03189 0.0791,0.07912 v 0.822349 c 0,0.04723 -0.0319,0.08022 -0.0791,0.08022 h -0.44689 c -0.0472,0 -0.0806,-0.03298 -0.0806,-0.08022 v -0.822344 c 0,-0.04723 0.0334,-0.07912 0.0806,-0.07912 z m -2.99968,-0.354944 3.7e-4,3.67e-4 h 0.0583 v 0.09341 1.597081 h 0.35458 v -1.030044 l 0.64359,1.030044 h 0.36007 v -0.09377 -1.438471 -0.157876 h -0.35458 v 1.029676 l -0.6447,-1.030409 z m -3.4113,7.33e-4 v 1.335906 0.354215 h 0.35459 0.76374 v -0.354215 h -0.76374 v -1.335906 z m -1.79087,-7.34e-4 -0.0103,0.02747 -0.62052,1.663381 h 0.37803 l 0.13626,-0.3652 h 0.59158 l 0.13627,0.365205 h 0.37839 l -0.62199,-1.663747 -0.0102,-0.02711 z m 0.17912,0.533704 0.16337,0.437365 h -0.32674 z m -1.94168,-0.533264 v 1.690415 h 0.35442 v -1.690415 z m -2.19502,2.87e-4 v 0.36264 0.0707 0.218316 0.07069 0.08059 0.283518 0.603667 h 0.35459 v -0.603667 h 0.0787 0.0674 l 0.45165,0.603667 h 0.44213 l -0.45642,-0.61062 c 0.16672,-0.03273 0.29598,-0.182024 0.29598,-0.357147 v -0.07069 -0.218316 -0.0707 c 0,-0.198425 -0.16568,-0.36264 -0.36411,-0.36264 h -0.0707 -0.36594 z m 0.35459,0.354216 h 0.44469 c 0.0472,0 0.0806,0.03188 0.0806,0.07912 v 0.218317 c 0,0.04723 -0.0333,0.08022 -0.0806,0.08022 h -0.44469 v -0.08022 -0.218317 z m -2.38433,-0.354209 v 0.354213 0.283885 0.354216 0.343592 0.354215 h 0.35421 0.7436 v -0.354215 h -0.7436 v -0.343592 h 0.43261 V 57.492509 H 51.5457 v -0.283885 h 0.7436 v -0.354213 h -0.7436 z m -1.76578,0 c -0.19842,0 -0.3641,0.164215 -0.3641,0.36264 v 0.07069 0.01136 0.178218 c 0,0.187025 0.08,0.303612 0.29864,0.331031 l 0.60686,0.0761 v 0.20623 0.01941 c 0,0.04723 -0.0315,0.08022 -0.0788,0.08022 h -0.39195 c -0.0472,0 -0.0802,-0.03298 -0.0802,-0.08022 v -0.01941 -0.07473 h -0.35458 v 0.07473 0.01941 0.07033 c 0,0.198425 0.16568,0.364106 0.3641,0.364106 h 0.0707 0.39195 0.0692 c 0.19842,0 0.3641,-0.165679 0.3641,-0.364106 v -0.07033 -0.01941 -0.223805 c 0,-0.194417 -0.09,-0.3069 -0.32757,-0.336692 l -0.57793,-0.07247 v -0.15861 -0.01136 c 0,-0.04723 0.033,-0.07912 0.0802,-0.07912 h 0.39195 c 0.0472,0 0.0788,0.03189 0.0788,0.07912 v 0.01136 0.05788 h 0.35458 v -0.05788 -0.01136 -0.07069 c 0,-0.198425 -0.16568,-0.36264 -0.36411,-0.36264 h -0.0692 -0.39194 z m 14.88975,3.71532 -0.0579,0.146243 -0.89039,2.23914 h 0.53847 l 0.1726,-0.434599 h 0.8971 l 0.1726,0.434599 h 0.53847 l -0.89038,-2.23914 -0.0579,-0.146243 z m 0.21135,0.823203 0.2496,0.627354 h -0.49919 z m -3.94549,-0.823722 v 2.386936 h 0.50022 v -1.179255 l 0.55914,1.013372 0.55914,-1.013372 v 1.179255 h 0.50023 v -2.386936 h -0.50023 l -0.55914,1.013892 -0.55914,-1.013892 z m 6.23716,0.0017 c -0.27993,0 -0.51367,0 -0.51367,0 v 0.611335 1.160134 0.612885 c 0,0 0.23374,0 0.51367,0 h 0.0997 0.63045 0.0997 c 0.27993,0 0.5116,-0.233733 0.5116,-0.513665 v -0.09922 -1.160134 -0.09974 c 0,-0.279929 -0.23167,-0.511595 -0.5116,-0.511595 h -0.0997 -0.63045 z m 0.0997,0.49971 h 0.63045 c 0.0666,0 0.11162,0.04498 0.11162,0.111623 v 1.160134 c 0,0.06664 -0.045,0.113173 -0.11162,0.113173 h -0.74414 c 0,0 0,-0.04653 0,-0.113173 v -1.271757 c 0,0 0.0471,0 0.11369,0 z m 2.24467,-0.499707 v 0.49971 0.400492 0.499713 0.484725 0.499711 h 0.49971 1.04903 V 62.455555 H 69.66256 V 61.97083 h 0.6103 v -0.499713 h -0.6103 v -0.400492 h 1.04903 v -0.49971 h -1.04903 z m 3.95672,-1.49e-4 v 0.511598 0.09974 0.196371 0.09973 0.03101 0.08268 0.399975 0.02894 0.09973 0.221175 0.09973 0.113689 0.399976 h 0.50023 0.1111 0.51625 0.0997 c 0.27993,0 0.51367,-0.233736 0.51367,-0.513665 v -0.09973 -0.221175 -0.09973 c 0,-0.09935 -0.0306,-0.191794 -0.0811,-0.270785 0.0505,-0.07934 0.0811,-0.172448 0.0811,-0.271817 v -0.09973 -0.196371 -0.09974 c 0,-0.279929 -0.23374,-0.511598 -0.51367,-0.511598 h -0.0997 -0.51625 z m 0.50023,0.499711 h 0.62735 c 0.0666,0 0.11369,0.04498 0.11369,0.111622 v 0.196371 c 0,0.06664 -0.047,0.11317 -0.11369,0.11317 H 73.6198 v -0.11317 -0.196371 z m 0,0.938445 h 0.62735 c 0.0666,0 0.11369,0.04498 0.11369,0.11162 v 0.221175 c 0,0.06664 -0.047,0.113173 -0.11369,0.113173 H 73.6198 v -0.113173 -0.221175 z m 1.88419,-1.439042 0.85266,1.343073 v 1.042313 h 0.50023 V 61.9145 l 0.85421,-1.344623 h -0.59273 l -0.5116,0.804603 -0.51056,-0.804603 z m 31.81033,9.484119 v 0.5 h 0.47461 v -0.5 z m -2.19005,-1.698178 c -0.27993,0 -0.51366,0.231666 -0.51366,0.511595 v 0.09974 1.160134 0.09922 c 0,0.279932 0.23373,0.513665 0.51366,0.513665 h 0.0997 0.63044 0.0997 c 0.27993,0 0.5116,-0.233733 0.5116,-0.513665 v -0.09922 -1.160134 -0.09974 c 0,-0.279929 -0.23167,-0.511595 -0.5116,-0.511595 h -0.0997 -0.63044 z m 0.0997,0.49971 h 0.63044 c 0.0666,0 0.11163,0.04498 0.11163,0.111623 v 1.160134 c 0,0.06664 -0.045,0.113173 -0.11163,0.113173 h -0.63044 c -0.0666,0 -0.11369,-0.04653 -0.11369,-0.113173 v -1.160134 c 0,-0.06664 0.047,-0.111623 0.11369,-0.111623 z m -4.95725,-0.499803 v 2.384351 h 0.49971 v -0.959631 h 0.92811 v 0.959631 h 0.49971 v -2.384351 h -0.49971 v 0.924491 h -0.92811 v -0.924491 z m -2.27521,9.3e-5 c -0.27993,0 -0.51366,0.231666 -0.51366,0.511595 v 0.09974 1.160134 0.09922 c 0,0.279932 0.23373,0.513665 0.51366,0.513665 h 0.0997 0.63045 0.0997 c 0.27993,0 0.5116,-0.233733 0.5116,-0.513665 v -0.09922 -1.160134 -0.09974 c 0,-0.279929 -0.23167,-0.511595 -0.5116,-0.511595 h -0.0997 -0.63045 z m 0.0997,0.49971 h 0.63045 c 0.0666,0 0.11163,0.04498 0.11163,0.111623 v 1.160134 c 0,0.06664 -0.045,0.113173 -0.11163,0.113173 h -0.63045 c -0.0666,0 -0.11369,-0.04653 -0.11369,-0.113173 v -1.160134 c 0,-0.06664 0.047,-0.111623 0.11369,-0.111623 z m 5.10006,-0.500751 v 2.384766 h 0.5 V 68.35478 Z m -50.38906,1.798438 v 0.528939 h 0.0447 c 0.064,0 0.19953,0.03585 0.13643,0.200505 -0.043,0.112191 -0.10362,0.196342 -0.17753,0.302461 l 0.20105,0.16949 c 0.0411,-0.0411 0.37505,-0.319381 0.37565,-0.672456 2.8e-4,-0.166361 0,-0.528939 0,-0.528939 z m -19.02998,-1.798617 5.2e-4,5.18e-4 h 0.0822 v 0.131773 2.253094 h 0.50022 v -1.453142 l 0.90796,1.453142 h 0.50798 v -0.132292 -2.029333 -0.222726 h -0.50023 v 1.452623 l -0.90951,-1.453657 z m 7.01146,0 5.1e-4,5.18e-4 h 0.0822 v 0.131773 2.253094 h 0.50023 v -1.453142 l 0.90795,1.453142 h 0.50798 v -0.132292 -2.029333 -0.222726 h -0.50022 v 1.452623 l -0.90951,-1.453657 z m 2.836,0 5.2e-4,5.18e-4 h 0.0822 v 0.131773 2.253094 h 0.50022 v -1.453142 l 0.90796,1.453142 h 0.50798 v -0.132292 -2.029333 -0.222726 h -0.50023 v 1.452623 l -0.90951,-1.453657 z m -6.41729,0.0011 c -0.27993,0 -0.51159,0.231666 -0.51159,0.511595 v 0.09974 1.160134 0.09922 c 0,0.279932 0.23166,0.513665 0.51159,0.513665 h 0.0997 0.50385 0.0977 c 0.27993,0 0.51366,-0.233733 0.51366,-0.513665 v -0.09922 -0.303858 l -0.49971,-0.08785 v 0.391708 c 0,0.06664 -0.045,0.113173 -0.11162,0.113173 h -0.50385 c -0.0666,0 -0.1111,-0.04653 -0.1111,-0.113173 v -1.16011 c 0,-0.06664 0.0445,-0.111623 0.1111,-0.111623 h 0.50385 c 0.0666,0 0.11162,0.04498 0.11162,0.111623 v 0.286803 l 0.49971,-0.04186 v -0.244946 -0.09974 c 0,-0.279929 -0.23373,-0.511595 -0.51366,-0.511595 h -0.0977 -0.50385 z m 14.21153,-9.48e-4 v 2.384766 h 0.5 v -2.384766 z m -12.07813,0 v 2.384766 h 0.5 v -2.384766 z m 7.77347,-8.7e-5 -0.0145,0.03876 -0.87539,2.346627 h 0.53329 l 0.19224,-0.515215 h 0.83458 l 0.19223,0.515215 h 0.53382 l -0.87747,-2.347143 -0.0145,-0.03824 z m 0.2527,0.752928 0.23048,0.617016 h -0.46096 z m -14.9832,-0.752841 v 2.384766 h 0.5 v -2.384766 z m 16.50101,-8.7e-5 v 0.499713 h 0.62063 v 1.885673 h 0.50023 v -1.885673 h 0.62063 V 68.35469 Z m -18.51781,0.001 c -0.27993,0 -0.51159,0.231666 -0.51159,0.511595 v 0.09974 1.160134 0.09922 c 0,0.279932 0.23166,0.513665 0.51159,0.513665 h 0.0997 0.50385 0.0977 c 0.27993,0 0.51366,-0.233733 0.51366,-0.513665 v -0.09922 -0.303858 l -0.49971,-0.08785 v 0.391708 c 0,0.06664 -0.045,0.113173 -0.11162,0.113173 H 30.4617 c -0.0666,0 -0.1111,-0.04653 -0.1111,-0.113173 V 68.96706 c 0,-0.06664 0.0445,-0.111623 0.1111,-0.111623 h 0.50385 c 0.0666,0 0.11162,0.04498 0.11162,0.111623 v 0.286803 l 0.49971,-0.04186 v -0.244946 -0.09974 c 0,-0.279929 -0.23373,-0.511595 -0.51366,-0.511595 h -0.0977 -0.50385 z m 64.52733,-4.027569 5.2e-4,5.18e-4 h 0.0822 v 0.131773 2.253094 h 0.50023 V 65.26034 l 0.90795,1.453142 h 0.50798 V 66.58125 64.551917 64.32919 h -0.50022 v 1.452624 l -0.90951,-1.453658 z m -2.18118,0.001 c -0.27993,0 -0.51367,0.231666 -0.51367,0.511595 v 0.09974 1.160134 0.09922 c 0,0.279932 0.23374,0.513665 0.51367,0.513665 h 0.0997 0.63045 0.0997 c 0.27993,0 0.5116,-0.233733 0.5116,-0.513665 v -0.09922 -1.160134 -0.09974 c 0,-0.279929 -0.23167,-0.511595 -0.5116,-0.511595 h -0.0997 -0.63045 z m 0.0997,0.49971 h 0.63045 c 0.0666,0 0.11162,0.04498 0.11162,0.111623 v 1.160134 c 0,0.06664 -0.045,0.113173 -0.11162,0.113173 h -0.63045 c -0.0666,0 -0.11369,-0.04653 -0.11369,-0.113173 V 64.94043 c 0,-0.06664 0.047,-0.111623 0.11369,-0.111623 z m -2.10287,-0.501468 v 2.386719 h 0.5 v -2.386719 z m -2.57331,7.23e-4 v 0.499713 h 0.62064 v 1.885673 h 0.50022 v -1.885673 h 0.62064 v -0.499713 z m -1.62942,0 -0.0145,0.03876 -0.8754,2.346626 h 0.5333 l 0.19223,-0.515215 h 0.83458 l 0.19223,0.515215 h 0.53382 L 87.02101,64.3664 87.00651,64.32816 Z m 0.25269,0.752927 0.23048,0.617016 h -0.46095 z m -3.3716,-0.751892 v 0.511595 0.09974 0.307991 0.09973 0.113689 0.399976 0.851628 h 0.50023 v -0.851628 h 0.11111 0.0951 l 0.63717,0.851628 h 0.62373 l -0.64389,-0.861447 c 0.2352,-0.04617 0.41755,-0.256791 0.41755,-0.503846 v -0.09973 -0.307991 -0.09974 c 0,-0.279929 -0.23373,-0.511595 -0.51366,-0.511595 h -0.0997 -0.51625 z m 0.50023,0.49971 h 0.62735 c 0.0666,0 0.11369,0.04498 0.11369,0.111623 v 0.307991 c 0,0.06664 -0.0471,0.11317 -0.11369,0.11317 h -0.62735 v -0.11317 -0.307991 z m -2.81709,-0.49971 c -0.27993,0 -0.51366,0.231666 -0.51366,0.511595 v 0.09974 1.160134 0.09922 c 0,0.279932 0.23373,0.513665 0.51366,0.513665 h 0.0997 0.63045 0.0997 c 0.27993,0 0.5116,-0.233733 0.5116,-0.513665 v -0.09922 -1.160134 -0.09974 c 0,-0.279929 -0.23167,-0.511595 -0.5116,-0.511595 h -0.0997 -0.63045 z m 0.0997,0.49971 h 0.63045 c 0.0666,0 0.11162,0.04498 0.11162,0.111623 v 1.160134 c 0,0.06664 -0.045,0.113173 -0.11162,0.113173 h -0.63045 c -0.0666,0 -0.11369,-0.04653 -0.11369,-0.113173 V 64.94043 c 0,-0.06664 0.0471,-0.111623 0.11369,-0.111623 z m -5.81596,-0.49971 v 0.511595 0.09974 0.307991 0.09973 0.113689 0.399976 0.851628 h 0.50023 v -0.851628 h 0.11111 0.0951 l 0.63717,0.851628 h 0.62373 l -0.64389,-0.861447 c 0.2352,-0.04617 0.41755,-0.256791 0.41755,-0.503846 v -0.09973 -0.307991 -0.09974 c 0,-0.279929 -0.23373,-0.511595 -0.51366,-0.511595 h -0.0997 -0.51625 z m 0.50023,0.49971 h 0.62735 c 0.0666,0 0.11369,0.04498 0.11369,0.111623 v 0.307991 c 0,0.06664 -0.0471,0.11317 -0.11369,0.11317 h -0.62735 v -0.11317 -0.307991 z m -2.75862,-0.49971 c -0.27993,0 -0.51367,0.231666 -0.51367,0.511595 v 0.09974 1.160134 0.09922 c 0,0.279932 0.23374,0.513665 0.51367,0.513665 h 0.0997 0.63045 0.0997 c 0.27993,0 0.51159,-0.233733 0.51159,-0.513665 v -0.09922 -1.160134 -0.09974 c 0,-0.279929 -0.23166,-0.511595 -0.51159,-0.511595 h -0.0997 -0.63045 z m 0.0997,0.49971 h 0.63045 c 0.0666,0 0.11162,0.04498 0.11162,0.111623 v 1.160134 c 0,0.06664 -0.045,0.113173 -0.11162,0.113173 H 73.1915 c -0.0666,0 -0.11369,-0.04653 -0.11369,-0.113173 V 64.94043 c 0,-0.06664 0.0471,-0.111623 0.11369,-0.111623 z m -2.67642,-0.49971 c -0.27993,0 -0.5116,0.231666 -0.5116,0.511595 v 0.09974 1.160134 0.09922 c 0,0.279932 0.23167,0.513665 0.5116,0.513665 h 0.0997 0.50384 0.0977 c 0.27993,0 0.51367,-0.233733 0.51367,-0.513665 v -0.09922 -0.303858 l -0.49972,-0.08785 v 0.391708 c 0,0.06664 -0.045,0.113173 -0.11162,0.113173 h -0.50384 c -0.0666,0 -0.11111,-0.04653 -0.11111,-0.113173 v -1.160134 c 0,-0.06664 0.0445,-0.111623 0.11111,-0.111623 h 0.50384 c 0.0666,0 0.11162,0.04498 0.11162,0.111623 v 0.286803 l 0.49972,-0.04186 v -0.244946 -0.09974 c 0,-0.279929 -0.23374,-0.511595 -0.51367,-0.511595 h -0.0977 -0.50384 z m -5.30666,-0.001 0.85266,1.343073 v 1.042313 h 0.50023 V 65.67272 l 0.85422,-1.344623 H 66.8228 L 66.3112,65.1327 65.80064,64.328097 Z m -2.05204,0.001 v 0.49971 0.400492 0.499713 0.484725 0.499711 h 0.49971 1.04903 v -0.499711 h -1.04903 v -0.484725 h 0.6103 v -0.499713 h -0.6103 v -0.400492 h 1.04903 v -0.49971 h -1.04903 z m -2.28774,-10e-7 v 1.884641 0.49971 h 0.50023 1.07745 v -0.49971 H 61.36887 V 64.32919 Z m -2.18178,0 c -0.27993,0 -0.51367,0.231667 -0.51367,0.511596 v 0.09974 0.01601 0.251423 c 0,0.263847 0.11285,0.428323 0.42131,0.467005 l 0.85614,0.107363 v 0.290938 0.02739 c 0,0.06664 -0.0445,0.113173 -0.11111,0.113173 h -0.55294 c -0.0666,0 -0.11317,-0.04653 -0.11317,-0.113173 v -0.02739 -0.10542 h -0.50023 v 0.10542 0.02739 0.09922 c 0,0.279929 0.23374,0.513665 0.51367,0.513665 h 0.0997 0.55294 0.0977 c 0.27993,0 0.51366,-0.233733 0.51366,-0.513665 v -0.09922 -0.02739 -0.315732 c 0,-0.274275 -0.12696,-0.432962 -0.46212,-0.474991 l -0.81532,-0.102246 v -0.22376 -0.01601 c 0,-0.06664 0.0465,-0.111622 0.11317,-0.111622 h 0.55294 c 0.0666,0 0.11111,0.04498 0.11111,0.111622 v 0.01601 0.08165 h 0.50022 v -0.08165 -0.01601 -0.09974 c 0,-0.279929 -0.23373,-0.511596 -0.51366,-0.511596 h -0.0977 -0.55294 z m -2.69906,0 c -0.27993,0 -0.51367,0.231667 -0.51367,0.511596 v 0.09974 1.160135 0.09922 c 0,0.279932 0.23374,0.513665 0.51367,0.513665 h 0.0997 0.63046 0.0997 c 0.27993,0 0.5116,-0.233733 0.5116,-0.513665 v -0.09922 -1.160135 -0.09974 c 0,-0.279929 -0.23167,-0.511596 -0.5116,-0.511596 h -0.0997 -0.63046 z m 0.0997,0.499711 h 0.63046 c 0.0666,0 0.11162,0.04498 0.11162,0.111622 v 1.160135 c 0,0.06664 -0.045,0.113173 -0.11162,0.113173 H 56.0875 c -0.0666,0 -0.11369,-0.04653 -0.11369,-0.113173 v -1.160135 c 0,-0.06664 0.0471,-0.111622 0.11369,-0.111622 z m 21.89585,-0.49971 v 0.511595 0.09974 0.307991 0.09973 0.113689 0.399976 0.851628 h 0.50023 v -0.851628 h 0.11111 0.51624 0.0997 c 0.27993,0 0.51367,-0.233736 0.51367,-0.513665 v -0.09973 -0.307991 -0.09974 c 0,-0.279929 -0.23374,-0.511595 -0.51367,-0.511595 h -0.0997 -0.51624 z m 0.50023,0.49971 h 0.62735 c 0.0666,0 0.11369,0.04498 0.11369,0.111623 v 0.307991 c 0,0.06664 -0.047,0.11317 -0.11369,0.11317 H 78.48358 V 65.248421 64.94043 Z M 52.86447,64.32919 v 0.511596 0.09974 0.307991 0.09973 0.113689 0.399976 0.851627 h 0.50023 v -0.851627 h 0.11111 0.0951 l 0.63717,0.851627 h 0.62374 l -0.64389,-0.861446 c 0.2352,-0.04617 0.41754,-0.256791 0.41754,-0.503846 v -0.09973 -0.307991 -0.09974 c 0,-0.279929 -0.23373,-0.511596 -0.51366,-0.511596 h -0.0997 -0.51624 z m 0.50023,0.499711 h 0.62735 c 0.0667,0 0.11369,0.04498 0.11369,0.111622 v 0.307991 c 0,0.06664 -0.047,0.11317 -0.11369,0.11317 H 53.3647 v -0.11317 -0.307991 z M 50.77468,64.32919 c -0.27993,0 -0.5116,0.231667 -0.5116,0.511596 v 0.09974 1.160135 0.09922 c 0,0.279932 0.23167,0.513665 0.5116,0.513665 h 0.0997 0.50384 0.0977 c 0.27993,0 0.51366,-0.233733 0.51366,-0.513665 v -0.09922 -0.303858 l -0.49971,-0.08785 v 0.391708 c 0,0.06664 -0.045,0.113173 -0.11162,0.113173 h -0.50384 c -0.0666,0 -0.11111,-0.04653 -0.11111,-0.113173 v -1.160135 c 0,-0.06664 0.0445,-0.111622 0.11111,-0.111622 h 0.50384 c 0.0666,0 0.11162,0.04498 0.11162,0.111622 v 0.286803 l 0.49971,-0.04186 v -0.244946 -0.09974 c 0,-0.279929 -0.23373,-0.511596 -0.51366,-0.511596 h -0.0977 -0.50384 z m -4.78369,0 v 0.499711 0.400492 0.499713 0.484725 0.49971 h 0.49971 1.04904 v -0.49971 H 46.4907 v -0.484725 h 0.6103 v -0.499713 h -0.6103 v -0.400492 h 1.04904 V 64.32919 H 46.4907 Z m -2.9347,0 v 2.384351 H 43.556 v -0.95963 h 0.92811 v 0.95963 h 0.49971 V 64.32919 h -0.49971 v 0.924492 H 43.556 V 64.32919 Z m -2.45101,-10e-4 v 0.499713 h 0.62063 v 1.885672 h 0.50023 v -1.885672 h 0.62063 V 64.328156 Z M 30.4886,46.749898 c -0.24187,0.01236 -0.45813,0.09034 -0.625,0.214844 -0.16688,0.124501 -0.29391,0.30112 -0.30664,0.517578 -0.0127,0.216459 0.12038,0.436128 0.33203,0.5625 0.21165,0.126372 0.49756,0.192829 0.88867,0.205078 0.30106,0.0094 0.50241,0.06579 0.60547,0.121094 0.10306,0.0553 0.10084,0.08426 0.10156,0.09766 7.2e-4,0.0134 -0.01,0.06312 -0.0879,0.13086 -0.0779,0.06773 -0.21396,0.140362 -0.39648,0.18164 -0.4519,0.102195 -0.85174,-0.102953 -1.15821,-0.345703 l -0.31054,0.392578 c 0.36827,0.291706 0.92546,0.58705 1.57812,0.439453 0.24951,-0.05642 0.45868,-0.154898 0.61524,-0.291015 0.15655,-0.136117 0.27122,-0.322197 0.25976,-0.535156 -0.0115,-0.21296 -0.1604,-0.401803 -0.36523,-0.511719 -0.20483,-0.109917 -0.47458,-0.168676 -0.82617,-0.179688 -0.33812,-0.01059 -0.54873,-0.07523 -0.64844,-0.134765 -0.0997,-0.05954 -0.0912,-0.08021 -0.0898,-0.103516 10e-4,-0.02331 0.0271,-0.08658 0.10742,-0.146484 0.0803,-0.0599 0.20559,-0.109728 0.35156,-0.117188 0.4419,-0.02258 0.65887,0.04425 0.95313,0.28711 l 0.31836,-0.386719 c -0.37048,-0.305764 -0.77949,-0.424882 -1.29688,-0.398442 z m 26.4897,0.01758 c -0.24186,0.01236 -0.45812,0.09034 -0.625,0.214844 -0.16688,0.124501 -0.29391,0.30112 -0.30664,0.517578 -0.0127,0.216459 0.12038,0.436128 0.33203,0.5625 0.21165,0.126372 0.49756,0.19283 0.88867,0.205078 0.30107,0.0094 0.50241,0.06579 0.60547,0.121094 0.10306,0.0553 0.10084,0.08426 0.10157,0.09766 7.2e-4,0.0134 -0.01,0.06313 -0.0879,0.13086 -0.0779,0.06773 -0.21396,0.138409 -0.39649,0.179687 -0.4519,0.102195 -0.85174,-0.100999 -1.1582,-0.34375 l -0.31055,0.392578 c 0.36827,0.291706 0.92546,0.58705 1.57813,0.439454 0.2495,-0.05642 0.45868,-0.154899 0.61523,-0.291016 0.15655,-0.136117 0.27123,-0.322197 0.25977,-0.535156 -0.0115,-0.21296 -0.16041,-0.401803 -0.36524,-0.511719 -0.20483,-0.109917 -0.47458,-0.168676 -0.82617,-0.179688 -0.33812,-0.01059 -0.54872,-0.07523 -0.64844,-0.134765 -0.0997,-0.05954 -0.0912,-0.08021 -0.0898,-0.103516 0.001,-0.02331 0.0271,-0.08658 0.10742,-0.146484 0.0803,-0.0599 0.2056,-0.109728 0.35157,-0.117188 0.4419,-0.02258 0.65887,0.04425 0.95312,0.28711 l 0.31836,-0.386719 c -0.37047,-0.305762 -0.77948,-0.42488 -1.29687,-0.39844 z m -3.33223,0.04702 v 2.487186 h 0.50023 v -0.963763 h 0.72657 c 0.23386,0 0.44071,-0.09407 0.57412,-0.240297 0.13342,-0.146219 0.19763,-0.333095 0.19947,-0.517798 0.002,-0.1847 -0.0598,-0.375549 -0.19378,-0.52348 C 55.31869,46.908416 55.11006,46.8145 54.87287,46.8145 Z m 0.50023,0.499713 h 0.72657 c 0.11673,0 0.169,0.03412 0.20877,0.07803 0.0398,0.04391 0.0653,0.110818 0.0646,0.181901 -7.1e-4,0.07108 -0.0266,0.139899 -0.0682,0.185518 -0.0416,0.04562 -0.0953,0.07803 -0.20515,0.07803 h -0.72657 z m -3.11439,-0.497647 v 2.486155 h 0.50023 v -0.933794 h 0.73225 c 0.0233,0 0.0442,-0.005 0.0667,-0.0067 0.0559,0.06593 0.11827,0.179671 0.16227,0.331245 0.0505,0.173863 0.0758,0.390057 0.0832,0.609267 h 0.50333 c -0.007,-0.258551 -0.039,-0.515792 -0.10646,-0.748276 -0.0409,-0.140965 -0.0948,-0.274921 -0.16846,-0.393258 0.16457,-0.149202 0.26185,-0.357929 0.26406,-0.565341 0.002,-0.190122 -0.0609,-0.38526 -0.20102,-0.535366 -0.14017,-0.150106 -0.35743,-0.243914 -0.60358,-0.243914 z m 0.50023,0.499711 h 0.73225 c 0.12939,0 0.19414,0.03702 0.23823,0.08423 0.0441,0.04721 0.0674,0.116166 0.0667,0.189138 -0.002,0.145939 -0.0609,0.279569 -0.30489,0.279569 h -0.73225 z m -2.24329,-0.503879 c -0.68403,0 -1.24414,0.56011 -1.24414,1.244141 0,0.68403 0.56011,1.244141 1.24414,1.24414 0.68403,0 1.24414,-0.56011 1.24414,-1.24414 0,-0.684031 -0.56011,-1.244141 -1.24414,-1.244141 z m 0,0.5 c 0.41381,0 0.74414,0.33033 0.74414,0.744141 0,0.41381 -0.33033,0.74414 -0.74414,0.74414 -0.41381,0 -0.74414,-0.33033 -0.74414,-0.74414 0,-0.413811 0.33033,-0.744141 0.74414,-0.744141 z M 46.28299,46.87099 c -0.49715,0.17962 -0.83349,0.647649 -0.83399,1.171875 -4.9e-4,0.524226 0.33522,0.99331 0.83204,1.173828 0.49681,0.180519 1.05624,0.03934 1.40429,-0.355469 l -0.375,-0.330078 c -0.21045,0.238725 -0.5541,0.325764 -0.85937,0.214844 -0.30527,-0.11092 -0.50225,-0.39117 -0.50196,-0.703125 3e-4,-0.311955 0.19843,-0.590799 0.50391,-0.701172 0.30549,-0.110373 0.64743,-0.0223 0.85742,0.216797 l 0.37696,-0.330078 c -0.34732,-0.395442 -0.90716,-0.53704 -1.4043,-0.35742 z M 41.81423,46.8145 v 1.987994 0.500227 h 0.50023 1.25729 V 48.802494 H 42.31446 V 46.8145 Z m -1.93837,5.16e-4 -0.84956,2.486671 h 0.52813 l 0.18242,-0.533303 h 0.93483 l 0.1819,0.533303 h 0.53072 l -0.85163,-2.486671 z m 0.32866,0.586526 0.29663,0.867132 H 39.9079 Z m -3.70676,-0.586524 v 0.134874 2.351794 h 0.50023 v -1.630389 l 1.13016,1.630389 h 0.50643 v -0.148309 -2.338359 h -0.50022 v 1.616438 l -1.12035,-1.616438 z m -1.63504,-0.02584 c -0.1318,0.0024 -0.26477,0.02302 -0.39429,0.06253 -0.51809,0.158065 -0.89363,0.602155 -0.92398,1.126546 -0.0303,0.524391 0.29487,1.006268 0.79324,1.214914 0.35041,0.146703 0.73953,0.141755 1.07848,0.0036 v 0.105937 h 0.49972 v -0.881084 -0.49971 h -0.49972 -0.43976 v 0.49971 h 0.43976 v 0.20774 c -0.24538,0.180579 -0.59046,0.226238 -0.88521,0.102836 -0.32,-0.133969 -0.50383,-0.421137 -0.48628,-0.724503 0.0175,-0.303369 0.23535,-0.575223 0.57051,-0.677479 0.33516,-0.102254 0.70575,-0.0024 0.92346,0.239779 l 0.3731,-0.33383 C 35.64482,46.939206 35.25811,46.78235 34.86272,46.789163 Z m -2.32796,0.02517 v 2.488282 h 0.5 v -2.488282 z m 60.66888,-0.02637 c -0.49024,0.02124 -0.90976,0.318471 -0.93554,0.753906 -0.0129,0.217717 0.11804,0.443336 0.33203,0.572266 0.21398,0.128929 0.50267,0.192903 0.89648,0.197265 0.28581,0.0032 0.46573,0.05433 0.54883,0.101563 0.0831,0.04724 0.0742,0.05902 0.0742,0.08008 0,0.02106 -0.0205,0.08335 -0.0918,0.152344 -0.0713,0.06899 -0.18603,0.1387 -0.32617,0.177734 -0.43736,0.12182 -0.88046,-0.09069 -1.17969,-0.318359 l -0.30273,0.398437 c 0.36781,0.279853 0.96077,0.583225 1.61718,0.400391 0.21521,-0.05994 0.39908,-0.1634 0.53907,-0.298828 0.13999,-0.135429 0.24417,-0.308558 0.24414,-0.511719 -3e-5,-0.203161 -0.13257,-0.404469 -0.32813,-0.515625 -0.19556,-0.111156 -0.45029,-0.162262 -0.78906,-0.166016 -0.33821,-0.0037 -0.54658,-0.06794 -0.64453,-0.126953 -0.0979,-0.05902 -0.0937,-0.08166 -0.0918,-0.113281 0.004,-0.06325 0.17328,-0.270824 0.45898,-0.283203 0.43504,-0.01885 0.59839,0.05711 0.91407,0.322265 l 0.32031,-0.382812 c -0.36273,-0.304679 -0.73196,-0.462153 -1.25586,-0.43945 z m 12.57492,0.02703 0.87333,1.390094 v 1.096576 h 0.49971 v -1.096576 l 0.87333,-1.390094 h -0.59014 l -0.5333,0.849561 -0.53279,-0.849561 z m -3.10731,0 v 2.48667 h 0.50023 v -1.959054 l 0.6072,1.784387 0.0594,0.174667 h 0.40876 l 0.0594,-0.174667 0.6072,-1.784387 v 1.959054 h 0.50023 v -2.48667 h -0.84956 l -0.52141,1.535305 -0.52142,-1.535305 z m -2.5802,5.16e-4 v 2.486154 h 0.50023 v -0.933794 h 0.73225 c 0.0233,0 0.0442,-0.005 0.0667,-0.0067 0.0559,0.06593 0.11826,0.17967 0.16226,0.331245 0.0505,0.173863 0.0758,0.390056 0.0832,0.609266 h 0.50333 c -0.007,-0.258551 -0.039,-0.515792 -0.10646,-0.748276 -0.0409,-0.140964 -0.0948,-0.27492 -0.16846,-0.393258 0.16457,-0.149201 0.26185,-0.357928 0.26406,-0.56534 0.002,-0.190122 -0.0608,-0.38526 -0.20102,-0.535366 -0.14017,-0.150106 -0.35743,-0.243914 -0.60358,-0.243914 z m 0.50023,0.49971 h 0.73225 c 0.12939,0 0.19414,0.03702 0.23823,0.08423 0.0441,0.04721 0.0674,0.116165 0.0667,0.189137 -0.002,0.145939 -0.0609,0.27957 -0.30489,0.27957 h -0.73225 z m -2.45722,-0.500226 -0.84956,2.48667 h 0.52813 l 0.18242,-0.533302 h 0.93483 l 0.1819,0.533302 h 0.53072 l -0.85163,-2.48667 z m 0.32866,0.586525 0.29663,0.867133 H 98.1661 Z m -3.48818,1.364956 v 0.5 h 0.47656 v -0.5 z m -4.62936,0 v 0.5 h 0.47656 v -0.5 z M 87.7612,46.815325 v 1.488281 c 0,0.326705 0.13399,0.603178 0.33593,0.779297 0.20195,0.176118 0.46068,0.255221 0.71485,0.253906 0.25416,-0.0013 0.50991,-0.08376 0.71093,-0.259766 0.20103,-0.176009 0.33594,-0.449858 0.33594,-0.773437 v -1.488281 h -0.5 v 1.488281 c 0,0.195414 -0.0658,0.310415 -0.16406,0.396484 -0.0983,0.08607 -0.24178,0.135969 -0.38672,0.136719 -0.14494,7.5e-4 -0.28543,-0.04593 -0.38281,-0.13086 -0.0974,-0.08493 -0.16406,-0.201794 -0.16406,-0.402343 v -1.488281 z m 3.00794,3.792741 v 2.010727 l 0.67237,0.166254 c 0.02,-0.04733 0.0422,-0.09039 0.0661,-0.12609 0.0851,-0.126783 0.19823,-0.168341 0.26264,-0.170873 0.10127,-0.004 0.2399,0.05949 0.32435,0.174635 0.0845,0.115149 0.12745,0.322252 0.11575,0.590145 -0.0223,0.510239 -0.2869,0.763696 -0.46302,0.75396 -0.36095,-0.01995 -0.33048,-0.332979 -0.32556,-0.636138 h -0.70125 c -0.008,0.440923 0.0241,0.673756 0.18862,0.906777 0.17771,0.276649 0.55966,0.455197 0.8971,0.426474 0.62384,-0.0531 1.07018,-0.661339 1.10329,-1.420066 0.0174,-0.399375 -0.0774,-0.757325 -0.27543,-1.02733 -0.198,-0.270002 -0.51701,-0.447024 -0.85938,-0.433564 -0.10878,0.0043 -0.21086,0.03115 -0.30644,0.07183 v -0.587044 h 1.09192 v -0.699698 z m -6.01185,2.082259 v 0.699218 h 1.2168 v -0.699218 z m 3.82564,-2.082259 -1.20044,2.363679 v 0.699182 h 1.23432 v 0.997871 H 89.316 v -0.997871 h 0.33176 V 52.971745 H 89.316 v -2.363679 z m 0.0339,1.305861 v 1.057818 h -0.53691 z m 5.65023,0.776398 v 0.699218 h 1.21484 v -0.699218 z m 3.45044,-2.08226 -0.95808,4.060732 h 0.71985 l 0.22169,-0.938961 H 98.519 l 0.22169,0.938961 h 0.71986 l -0.95808,-4.060732 z m 0.39274,1.386993 0.2434,1.033529 H 97.86633 Z M 80.90612,50.608066 v 0.124539 3.936193 h 0.69919 v -2.208649 l 0.88677,2.191078 v 0.01757 h 0.69918 v -0.161229 -3.898987 h -0.69918 v 2.173509 l -0.88109,-2.174024 z m -2.74919,-0.0072 c -0.61577,0 -1.07716,0.520504 -1.11363,1.109493 -0.0379,0.612125 -0.042,1.225349 0,1.841749 0.0399,0.586092 0.49777,1.109493 1.11363,1.109493 0.31129,0 0.50134,-0.137811 0.67851,-0.29559 l 0.0977,0.223758 h 0.33693 v -1.060915 -0.230995 -0.917773 h -0.3576 -0.34158 -0.52348 v 0.701249 h 0.52348 v 0.447519 c 0,0.249237 -0.18294,0.431498 -0.41393,0.431498 -0.23044,0 -0.39502,-0.17763 -0.41393,-0.455271 -0.0396,-0.581972 -0.0363,-1.165579 0,-1.75183 0.017,-0.275087 0.1834,-0.453202 0.41393,-0.453202 0.23099,0 0.41393,0.182777 0.41393,0.432014 v 0.227894 h 0.69918 v -0.227894 c 0,-0.616495 -0.4978,-1.131197 -1.11311,-1.131197 z m -14.23369,-0.0057 c -0.60203,0 -1.06553,0.499381 -1.09571,1.078125 -0.0331,0.63473 -0.0455,1.260989 0,1.908203 0.0401,0.570298 0.49342,1.072266 1.09571,1.072266 0.60205,0 1.06667,-0.50005 1.09765,-1.078125 0.034,-0.63401 0.0334,-1.258256 0,-1.902344 -0.03,-0.578853 -0.49562,-1.078125 -1.09765,-1.078125 z m 0,0.699219 c 0.22571,0 0.38558,0.168241 0.39844,0.416015 0.0322,0.621156 0.0326,1.218938 0,1.828125 -0.0133,0.248479 -0.17275,0.416016 -0.39844,0.416016 -0.22545,0 -0.38048,-0.166473 -0.39844,-0.421875 -0.0427,-0.607086 -0.0304,-1.202696 0.002,-1.822266 0.0129,-0.247872 0.17078,-0.416015 0.39649,-0.416015 z m 2.59046,-0.685779 v 4.060216 h 0.70073 v -1.67535 h 0.28887 l 0.64957,1.67535 h 0.75034 l -0.72398,-1.867585 c 0.0854,-0.05522 0.16486,-0.117253 0.22892,-0.190688 0.20075,-0.230103 0.29371,-0.521486 0.29456,-0.808218 8.5e-4,-0.286734 -0.09,-0.579961 -0.29094,-0.810805 -0.20093,-0.230841 -0.51947,-0.38292 -0.8847,-0.38292 z m 0.70073,0.701249 h 0.31264 c 0.18753,0 0.28372,0.05774 0.3576,0.142626 0.0739,0.08488 0.11925,0.213548 0.11886,0.347781 -4e-4,0.134237 -0.0483,0.263711 -0.12299,0.349335 -0.0747,0.08562 -0.16924,0.142626 -0.35347,0.142626 h -0.31264 z m -7.85012,-0.701249 v 0.699698 h 0.72761 v 3.361034 H 60.7911 V 51.30828 h 0.7276 v -0.699698 h -0.7276 -0.69918 z m -2.5895,-5.16e-4 -0.95808,4.060732 h 0.71985 l 0.22169,-0.938961 h 0.81804 l 0.22169,0.938961 h 0.71985 L 57.55977,50.60809 Z m 0.39274,1.386993 0.24339,1.033529 h -0.4873 z m -4.6855,-1.386477 v 4.060216 h 0.70073 v -1.67535 h 0.28887 l 0.64957,1.67535 h 0.75034 l -0.72398,-1.867585 c 0.0854,-0.05522 0.16486,-0.117253 0.22892,-0.190688 0.20075,-0.230103 0.29371,-0.521486 0.29456,-0.808218 8.5e-4,-0.286734 -0.09,-0.579961 -0.29094,-0.810805 -0.20093,-0.230841 -0.51947,-0.38292 -0.8847,-0.38292 z m 0.70073,0.701249 h 0.31264 c 0.18753,0 0.28372,0.05774 0.3576,0.142626 0.0739,0.08488 0.11925,0.213548 0.11886,0.347781 -4e-4,0.134237 -0.0483,0.263711 -0.12299,0.349335 -0.0747,0.08562 -0.16924,0.142626 -0.35347,0.142626 H 53.18278 Z M 45.46232,50.60809 v 0.124539 3.936193 h 0.69918 v -2.208649 l 0.88677,2.191078 v 0.01757 h 0.69918 v -0.161229 -3.898987 h -0.69918 v 2.173509 l -0.88108,-2.174025 z m 3.70417,5.16e-4 v 0.699698 0.884185 0.69918 1.078489 0.69918 h 0.69918 1.2361 v -0.69918 h -1.2361 v -1.078489 h 0.88057 v -0.69918 H 49.86567 V 51.30828 h 1.2361 v -0.699698 h -1.2361 z m -6.96185,0 v 0.699698 0.884185 0.69918 1.078489 0.69918 h 0.69918 1.2361 v -0.69918 h -1.2361 v -1.078489 h 0.88057 v -0.69918 H 42.90382 V 51.30828 h 1.2361 v -0.699698 h -1.2361 z m -2.50786,-0.0078 c -0.61576,0 -1.07716,0.520504 -1.11363,1.109493 -0.0379,0.612125 -0.042,1.225349 0,1.841749 0.0399,0.586092 0.49777,1.109493 1.11363,1.109493 0.31129,0 0.50135,-0.137811 0.67851,-0.29559 l 0.0977,0.223758 h 0.33693 v -1.060915 -0.230995 -0.917773 h -0.3576 -0.34158 -0.52348 v 0.701249 h 0.52348 v 0.447519 c 0,0.249237 -0.18294,0.431498 -0.41393,0.431498 -0.23043,0 -0.39501,-0.17763 -0.41392,-0.455271 -0.0396,-0.581972 -0.0363,-1.165579 0,-1.75183 0.017,-0.275087 0.18339,-0.453202 0.41392,-0.453202 0.23099,0 0.41393,0.182777 0.41393,0.432014 v 0.227894 h 0.69918 v -0.227894 c 0,-0.616495 -0.4978,-1.131197 -1.11311,-1.131197 z"
       inkscape:connector-curvature="0" />
  </g>
</svg>
