<?xml version="1.0" encoding="UTF-8" standalone="no"?>
<!-- Created with Inkscape (http://www.inkscape.org/) -->

<svg
   xmlns:dc="http://purl.org/dc/elements/1.1/"
   xmlns:cc="http://creativecommons.org/ns#"
   xmlns:rdf="http://www.w3.org/1999/02/22-rdf-syntax-ns#"
   xmlns:svg="http://www.w3.org/2000/svg"
   xmlns="http://www.w3.org/2000/svg"
   xmlns:sodipodi="http://sodipodi.sourceforge.net/DTD/sodipodi-0.dtd"
   xmlns:inkscape="http://www.inkscape.org/namespaces/inkscape"
   width="40.522556mm"
   height="56.567657mm"
   viewBox="0 0 40.522556 56.567657"
   version="1.1"
   id="svg8"
   inkscape:version="0.92.5 (2060ec1f9f, 2020-04-08)"
   sodipodi:docname="laser_chipboard_raw_v2.svg">
  <defs
     id="defs2">
    <marker
       style="overflow:visible"
       refY="0"
       refX="0"
       orient="auto"
       id="DistanceX">
      <path
         id="path4749"
         style="stroke:#000000;stroke-width:0.5"
         d="M 3,-3 -3,3 M 0,-5 V 5"
         inkscape:connector-curvature="0" />
    </marker>
    <pattern
       y="0"
       x="0"
       width="8"
       patternUnits="userSpaceOnUse"
       id="Hatch"
       height="8">
      <path
         id="path4752"
         stroke-width="0.25"
         stroke="#000000"
         linecap="square"
         d="M8 4 l-4,4" />
      <path
         id="path4754"
         stroke-width="0.25"
         stroke="#000000"
         linecap="square"
         d="M6 2 l-4,4" />
      <path
         id="path4756"
         stroke-width="0.25"
         stroke="#000000"
         linecap="square"
         d="M4 0 l-4,4" />
    </pattern>
    <symbol
       id="*Model_Space" />
    <symbol
       id="*Paper_Space" />
    <symbol
       id="*Paper_Space0" />
    <clipPath
       id="clipPath5739"
       clipPathUnits="userSpaceOnUse">
      <path
         inkscape:connector-curvature="0"
         id="path5737"
         d="m 7631,0 h 7817 V 4358 H 7631 V 0" />
    </clipPath>
    <clipPath
       id="clipPath5749"
       clipPathUnits="userSpaceOnUse">
      <path
         inkscape:connector-curvature="0"
         id="path5747"
         d="m 7544,4292 h 7816 V 8755 H 7544 V 4292" />
    </clipPath>
    <clipPath
       id="clipPath5831"
       clipPathUnits="userSpaceOnUse">
      <path
         inkscape:connector-curvature="0"
         id="path5829"
         d="m 15352,21 h 4463 V 4304 H 15352 V 21" />
    </clipPath>
    <clipPath
       id="clipPath5901"
       clipPathUnits="userSpaceOnUse">
      <path
         inkscape:connector-curvature="0"
         id="path5899"
         d="m 15407,4525 h 4434 V 8807 H 15407 V 4525" />
    </clipPath>
    <clipPath
       id="clipPath5945"
       clipPathUnits="userSpaceOnUse">
      <path
         inkscape:connector-curvature="0"
         id="path5943"
         d="M 0,0 H 7769 V 4220 H 0 V 0" />
    </clipPath>
    <clipPath
       id="clipPath5987"
       clipPathUnits="userSpaceOnUse">
      <path
         inkscape:connector-curvature="0"
         id="path5985"
         d="M 0,4415 H 7779 V 8698 H 0 V 4415" />
    </clipPath>
    <clipPath
       id="clipPath6061"
       clipPathUnits="userSpaceOnUse">
      <path
         inkscape:connector-curvature="0"
         id="path6059"
         d="m 1488,9626 h 2100 v 2857 H 1488 V 9626" />
    </clipPath>
  </defs>
  <sodipodi:namedview
     id="base"
     pagecolor="#ffffff"
     bordercolor="#666666"
     borderopacity="1.0"
     inkscape:pageopacity="0.0"
     inkscape:pageshadow="2"
     inkscape:zoom="3.959798"
     inkscape:cx="137.20203"
     inkscape:cy="72.727609"
     inkscape:document-units="mm"
     inkscape:current-layer="g6057"
     showgrid="false"
     fit-margin-top="1"
     fit-margin-right="1"
     fit-margin-bottom="1"
     fit-margin-left="1"
     inkscape:window-width="3762"
     inkscape:window-height="2131"
     inkscape:window-x="-9"
     inkscape:window-y="-9"
     inkscape:window-maximized="1" />
  <metadata
     id="metadata5">
    <rdf:RDF>
      <cc:Work
         rdf:about="">
        <dc:format>image/svg+xml</dc:format>
        <dc:type
           rdf:resource="http://purl.org/dc/dcmitype/StillImage" />
        <dc:title></dc:title>
      </cc:Work>
    </rdf:RDF>
  </metadata>
  <g
     inkscape:label="Layer 1"
     inkscape:groupmode="layer"
     id="layer1"
     transform="translate(264.37931,133.61683)">
    <g
       transform="matrix(0.02116667,0,0,-0.02116667,-297.85313,128.66454)"
       inkscape:label="ba-43-inner-box Drawing v6"
       id="g5731">
      <g
         id="g6055"
         style="stroke-width:12.49999803;stroke-miterlimit:10;stroke-dasharray:none">
        <g
           clip-path="url(#clipPath6061)"
           id="g6057"
           style="stroke-width:12.49999803;stroke-miterlimit:10;stroke-dasharray:none">
          <path
             d="m 2397,11953.5 c 0,-78.148 63.3517,-141.5 141.5,-141.5 78.1483,0 141.5,63.352 141.5,141.5 0,78.148 -63.3517,141.5 -141.5,141.5 -78.1483,0 -141.5,-63.352 -141.5,-141.5"
             style="fill:none;stroke:#ff0000;stroke-width:12.49999809;stroke-linecap:round;stroke-linejoin:round;stroke-miterlimit:10;stroke-dasharray:none;stroke-opacity:1"
             id="path6065"
             inkscape:connector-curvature="0" />
          <path
             d="m 2397,10156.5 c 0,-78.148 63.3517,-141.5 141.5,-141.5 78.1483,0 141.5,63.352 141.5,141.5 0,78.148 -63.3517,141.5 -141.5,141.5 -78.1483,0 -141.5,-63.352 -141.5,-141.5"
             style="fill:none;stroke:#ff0000;stroke-width:12.49999809;stroke-linecap:round;stroke-linejoin:round;stroke-miterlimit:10;stroke-dasharray:none;stroke-opacity:1"
             id="path6069"
             inkscape:connector-curvature="0" />
          <path
             inkscape:connector-curvature="0"
             id="path6071"
             style="fill:none;stroke:#000000;stroke-width:12.49999803;stroke-linecap:round;stroke-linejoin:round;stroke-miterlimit:10;stroke-dasharray:none;stroke-opacity:1"
             d="m 3270,11575 -424,597" />
          <path
             d="m 2847.1201,12172.629 c -70.9862,99.976 -186.0039,159.371 -308.6179,159.371 -122.6141,0 -237.6317,-59.396 -308.6177,-159.372"
             style="fill:none;stroke:#000000;stroke-width:12.49999809;stroke-linecap:round;stroke-linejoin:round;stroke-miterlimit:10;stroke-dasharray:none;stroke-opacity:1"
             id="path6075"
             inkscape:connector-curvature="0" />
          <path
             inkscape:connector-curvature="0"
             id="path6077"
             style="fill:none;stroke:#000000;stroke-width:12.49999803;stroke-linecap:round;stroke-linejoin:round;stroke-miterlimit:10;stroke-dasharray:none;stroke-opacity:1"
             d="m 2230,12172 -424,-597" />
          <path
             d="m 1806.706,11574.099 c -221.1863,-311.515 -221.406,-728.682 -0.5476,-1039.966"
             style="fill:none;stroke:#000000;stroke-width:12.49999809;stroke-linecap:round;stroke-linejoin:round;stroke-miterlimit:10;stroke-dasharray:none;stroke-opacity:1"
             id="path6081"
             inkscape:connector-curvature="0" />
          <path
             inkscape:connector-curvature="0"
             id="path6083"
             style="fill:none;stroke:#000000;stroke-width:12.49999803;stroke-linecap:round;stroke-linejoin:round;stroke-miterlimit:10;stroke-dasharray:none;stroke-opacity:1"
             d="m 1806,10534 424,-597" />
          <path
             d="m 2229.8813,9937.3719 c 70.9862,-99.9758 186.0039,-159.3712 308.6179,-159.3711 122.614,10e-5 237.6317,59.3958 308.6177,159.3717"
             style="fill:none;stroke:#000000;stroke-width:12.49999809;stroke-linecap:round;stroke-linejoin:round;stroke-miterlimit:10;stroke-dasharray:none;stroke-opacity:1"
             id="path6087"
             inkscape:connector-curvature="0" />
          <path
             inkscape:connector-curvature="0"
             id="path6089"
             style="fill:none;stroke:#000000;stroke-width:12.49999803;stroke-linecap:round;stroke-linejoin:round;stroke-miterlimit:10;stroke-dasharray:none;stroke-opacity:1"
             d="m 2846,9937 424,597" />
          <path
             d="m 3271.1114,10534.323 c 220.9402,311.168 220.7213,728.183 -0.5456,1039.584"
             style="fill:none;stroke:#000000;stroke-width:12.49999809;stroke-linecap:round;stroke-linejoin:round;stroke-miterlimit:10;stroke-dasharray:none;stroke-opacity:1"
             id="path6093"
             inkscape:connector-curvature="0" />
          <path
             inkscape:connector-curvature="0"
             id="path6095"
             style="fill:none;stroke:#ff0000;stroke-width:12.49999803;stroke-linecap:round;stroke-linejoin:round;stroke-miterlimit:10;stroke-dasharray:none;stroke-opacity:1"
             d="m 2588,10860 v -6" />
          <path
             d="m 2588.0378,10861.216 c 97.9471,24.974 161.9876,118.953 149.4026,219.247 -12.585,100.295 -97.8596,175.538 -198.9405,175.537 -101.081,0 -186.3554,-75.243 -198.9403,-175.537 -12.5849,-100.295 51.4557,-194.273 149.4029,-219.247"
             style="fill:none;stroke:#ff0000;stroke-width:12.49999809;stroke-linecap:round;stroke-linejoin:round;stroke-miterlimit:10;stroke-dasharray:none;stroke-opacity:1"
             id="path6099"
             inkscape:connector-curvature="0" />
          <path
             inkscape:connector-curvature="0"
             id="path6101"
             style="fill:none;stroke:#ff0000;stroke-width:12.49999803;stroke-linecap:round;stroke-linejoin:round;stroke-miterlimit:10;stroke-dasharray:none;stroke-opacity:1"
             d="m 2488,10854 v 6" />
          <path
             d="m 2489,10854.5 c 0,-27.338 22.1619,-49.5 49.5,-49.5 27.3381,0 49.5,22.162 49.5,49.5"
             style="fill:none;stroke:#ff0000;stroke-width:12.49999809;stroke-linecap:round;stroke-linejoin:round;stroke-miterlimit:10;stroke-dasharray:none;stroke-opacity:1"
             id="path6105"
             inkscape:connector-curvature="0" />
          <path
             d="m 2090,11213.5 c 0,-36.727 29.7731,-66.5 66.5,-66.5 36.7269,0 66.5,29.773 66.5,66.5 0,36.727 -29.7731,66.5 -66.5,66.5 -36.7269,0 -66.5,-29.773 -66.5,-66.5"
             style="fill:none;stroke:#ff0000;stroke-width:12.49999809;stroke-linecap:round;stroke-linejoin:round;stroke-miterlimit:10;stroke-dasharray:none;stroke-opacity:1"
             id="path6109"
             inkscape:connector-curvature="0" />
          <path
             d="m 2314,11437.5 c 0,-36.727 29.7731,-66.5 66.5,-66.5 36.7269,0 66.5,29.773 66.5,66.5 0,36.727 -29.7731,66.5 -66.5,66.5 -36.7269,0 -66.5,-29.773 -66.5,-66.5"
             style="fill:none;stroke:#ff0000;stroke-width:12.49999809;stroke-linecap:round;stroke-linejoin:round;stroke-miterlimit:10;stroke-dasharray:none;stroke-opacity:1"
             id="path6113"
             inkscape:connector-curvature="0" />
          <path
             d="m 2630,11437.5 c 0,-36.727 29.7731,-66.5 66.5,-66.5 36.7269,0 66.5,29.773 66.5,66.5 0,36.727 -29.7731,66.5 -66.5,66.5 -36.7269,0 -66.5,-29.773 -66.5,-66.5"
             style="fill:none;stroke:#ff0000;stroke-width:12.49999809;stroke-linecap:round;stroke-linejoin:round;stroke-miterlimit:10;stroke-dasharray:none;stroke-opacity:1"
             id="path6117"
             inkscape:connector-curvature="0" />
          <path
             d="m 2854,11213.5 c 0,-36.727 29.7731,-66.5 66.5,-66.5 36.7269,0 66.5,29.773 66.5,66.5 0,36.727 -29.7731,66.5 -66.5,66.5 -36.7269,0 -66.5,-29.773 -66.5,-66.5"
             style="fill:none;stroke:#ff0000;stroke-width:12.49999809;stroke-linecap:round;stroke-linejoin:round;stroke-miterlimit:10;stroke-dasharray:none;stroke-opacity:1"
             id="path6121"
             inkscape:connector-curvature="0" />
          <path
             d="m 2854,10896.5 c 0,-36.727 29.7731,-66.5 66.5,-66.5 36.7269,0 66.5,29.773 66.5,66.5 0,36.727 -29.7731,66.5 -66.5,66.5 -36.7269,0 -66.5,-29.773 -66.5,-66.5"
             style="fill:none;stroke:#ff0000;stroke-width:12.49999809;stroke-linecap:round;stroke-linejoin:round;stroke-miterlimit:10;stroke-dasharray:none;stroke-opacity:1"
             id="path6125"
             inkscape:connector-curvature="0" />
          <path
             d="m 2630,10672.5 c 0,-36.727 29.7731,-66.5 66.5,-66.5 36.7269,0 66.5,29.773 66.5,66.5 0,36.727 -29.7731,66.5 -66.5,66.5 -36.7269,0 -66.5,-29.773 -66.5,-66.5"
             style="fill:none;stroke:#ff0000;stroke-width:12.49999809;stroke-linecap:round;stroke-linejoin:round;stroke-miterlimit:10;stroke-dasharray:none;stroke-opacity:1"
             id="path6129"
             inkscape:connector-curvature="0" />
          <path
             d="m 2314,10672.5 c 0,-36.727 29.7731,-66.5 66.5,-66.5 36.7269,0 66.5,29.773 66.5,66.5 0,36.727 -29.7731,66.5 -66.5,66.5 -36.7269,0 -66.5,-29.773 -66.5,-66.5"
             style="fill:none;stroke:#ff0000;stroke-width:12.49999809;stroke-linecap:round;stroke-linejoin:round;stroke-miterlimit:10;stroke-dasharray:none;stroke-opacity:1"
             id="path6133"
             inkscape:connector-curvature="0" />
          <path
             d="m 2090,10896.5 c 0,-36.727 29.7731,-66.5 66.5,-66.5 36.7269,0 66.5,29.773 66.5,66.5 0,36.727 -29.7731,66.5 -66.5,66.5 -36.7269,0 -66.5,-29.773 -66.5,-66.5"
             style="fill:none;stroke:#ff0000;stroke-width:12.49999809;stroke-linecap:round;stroke-linejoin:round;stroke-miterlimit:10;stroke-dasharray:none;stroke-opacity:1"
             id="path6137"
             inkscape:connector-curvature="0" />
        </g>
      </g>
    </g>
  </g>
</svg>
